<?xml version="1.0" encoding="UTF-8"?>
<svg id="Layer_1" data-name="Layer 1" xmlns="http://www.w3.org/2000/svg" viewBox="0 0 413.82 276.47">
  <defs>
    <style>
      .cls-1 {
        fill: none;
        fill-rule: evenodd;
      }

      .cls-2 {
        fill: #f15a29;
        stroke: #231f20;
        stroke-miterlimit: 10;
        stroke-width: 5px;
      }

      .cls-3 {
        fill: silver;
      }

      .cls-4 {
        fill: #d1d3d4;
      }
    </style>
  </defs>
  <g>
    <path class="cls-4" d="M108.66,153.57c-2.09.69-2.43,9.4-2.25,11.88.39,4.77,1.28,9.88,4.05,13.87,2.78,3.96,6.91,5.74,12.17,8.22,15.77,7.36,36.92,16.54,52.84,24.78,4.15,2.15,7.74,4.14,10.53,5.9,5.75,3.7,10.04,7.78,16.46,10.13,13.69,5.1,36.47,9.55,51.26,9.92,4.68-.14,8.36-1.67,13.63-5.19,10.3-6.95,25.06-19.5,35.1-28.05,10.83-8.9,23.22-17.59,37.46-19.95,8.02-1.78,16.06-2.67,23.37-5.14,4.61-1.67,8.13-4.75,11.86-8.1,4.23-3.89,9.67-8.88,12.84-12,2.5-2.6,4.55-4.52,1.38-4.86-15.99.38-47.72,2.82-62.73,3.55-4.99.29-8.17.67-11.92,4.66-7.94,8.27-20.74,22.44-28.77,31.03-4.2,4.91-8.71,7.88-15.22,9.24-5.58,1.42-12.02,2.9-17.75,4.27-6.33,1.53-11.99,2.6-17.77,1.97-5.03-.46-10.2-1.39-15.2-2.15-7.65-1.18-12.8-2.12-20.3-4.9-15.27-5.3-32.46-11.27-48.09-16.69-4.54-1.57-8.84-3.07-13.26-4.6-6.74-2.09-9.95-4.28-14.31-9.02-2.66-2.78-5.43-5.88-8.08-8.73-2.31-2.18-5.2-6.15-7.76-6.1l.44-3.92Z"/>
    <path class="cls-2" d="M106.37,160.06c27.35-24.73,69.58-28.96,100.54-48.81,23.04-18.87,49.98-33.64,71.41-54.45,7.05-6.63,139.11,92.82,125.8,96.14-26.92,26.53-65.2,22.69-97.07,34.18-16.55,9.45-33.75,28.82-54.29,31.12-17.37,5.76-37.41-4.82-57.58-2.97-32.26,6.22-66.71-24.9-84.27-49.17l-4.53-6.05Z"/>
    <path class="cls-3" d="M123.09,220.76l-1.48.05"/>
  </g>
  <polygon class="cls-1" points="0 0 413.82 0 413.82 276.47 0 276.47 0 0 0 0"/>
</svg>